<?xml version="1.0" encoding="iso-8859-1"?>
<svg xmlns="http://www.w3.org/2000/svg" viewBox="-0.174 0.007 19.999 15.28" width="19.999" height="15.28">
    <g id="surface1">
        <path style="fill-rule: nonzero; fill-opacity: 1; stroke-width: 1; stroke-linecap: butt; stroke-linejoin: miter; stroke-opacity: 1; stroke-miterlimit: 4; fill: rgb(255, 255, 255); stroke: rgb(255, 255, 255);" d="M 0.691482 31.883414 C 0.716805 30.793383 1.223254 29.777672 2.134861 29.158336 C 2.995824 28.439906 4.236623 28.043531 5.578712 28.043531 C 6.920801 28.043531 8.1616 28.439906 9.022563 29.158336 C 9.934171 29.777672 10.440619 30.719063 10.465942 31.809094 L 10.465942 63.246586 C 10.440619 64.336617 9.934171 65.352328 9.022563 65.971664 C 8.1616 66.690094 6.920801 67.086469 5.578712 67.086469 C 4.236623 67.086469 2.995824 66.690094 2.134861 65.971664 C 1.223254 65.352328 0.716805 64.410938 0.691482 63.320906 L 0.691482 31.809094 " transform="matrix(0.15426,0,0,0.157679,0.0222379,0)"></path>
        <path style="fill-rule: nonzero; fill-opacity: 1; stroke-width: 1; stroke-linecap: butt; stroke-linejoin: miter; stroke-opacity: 1; stroke-miterlimit: 4; fill: rgb(255, 255, 255); stroke: rgb(255, 255, 255);" d="M 19.303471 23.361352 C 19.328793 22.27132 19.835242 21.280383 20.74685 20.636273 C 21.607812 19.942617 22.848612 19.546242 24.190701 19.546242 C 25.53279 19.546242 26.773589 19.942617 27.634551 20.636273 C 28.546159 21.280383 29.052608 22.221773 29.07793 23.311805 L 29.07793 71.768648 C 29.052608 72.85868 28.546159 73.849617 27.634551 74.493727 C 26.773589 75.187383 25.53279 75.608531 24.190701 75.608531 C 22.848612 75.608531 21.607812 75.187383 20.74685 74.493727 C 19.835242 73.849617 19.328793 72.908227 19.303471 71.818195 L 19.303471 23.311805 " transform="matrix(0.15426,0,0,0.157679,0.0222379,0)"></path>
        <path style="fill-rule: nonzero; fill-opacity: 1; stroke-width: 1; stroke-linecap: butt; stroke-linejoin: miter; stroke-opacity: 1; stroke-miterlimit: 4; fill: rgb(255, 255, 255); stroke: rgb(255, 255, 255);" d="M 37.991427 13.947445 C 38.016749 12.857414 38.523198 11.866477 39.409483 11.247141 C 40.270446 10.528711 41.485923 10.132336 42.802689 10.132336 C 44.144778 10.132336 45.360255 10.528711 46.195895 11.247141 C 47.08218 11.866477 47.588629 12.807867 47.613951 13.897898 L 47.613951 81.182555 C 47.588629 82.272586 47.08218 83.263523 46.195895 83.907633 C 45.334932 84.601289 44.119456 84.997664 42.802689 84.997664 C 41.485923 84.997664 40.245123 84.601289 39.409483 83.907633 C 38.523198 83.263523 38.016749 82.322133 37.991427 81.232102 L 37.991427 13.897898 " transform="matrix(0.15426,0,0,0.157679,0.0222379,0)"></path>
        <path style="fill-rule: nonzero; fill-opacity: 1; stroke-width: 1; stroke-linecap: butt; stroke-linejoin: miter; stroke-opacity: 1; stroke-miterlimit: 4; fill: rgb(255, 255, 255); stroke: rgb(255, 255, 255);" d="M 56.527448 3.839883 C 56.55277 2.749852 57.059219 1.734141 57.970827 1.114805 C 58.831789 0.396375 60.072589 0 61.414678 0 C 62.756767 0 63.997566 0.396375 64.858529 1.114805 C 65.770136 1.734141 66.276585 2.700305 66.301907 3.790336 L 66.301907 91.290117 C 66.276585 92.380148 65.770136 93.395859 64.858529 94.015195 C 63.997566 94.733625 62.756767 95.13 61.414678 95.13 C 60.072589 95.13 58.831789 94.733625 57.970827 94.015195 C 57.059219 93.395859 56.55277 92.429695 56.527448 91.339664 L 56.527448 3.790336 " transform="matrix(0.15426,0,0,0.157679,0.0222379,0)"></path>
        <path style="fill-rule: nonzero; fill-opacity: 1; stroke-width: 1; stroke-linecap: butt; stroke-linejoin: miter; stroke-opacity: 1; stroke-miterlimit: 4; fill: rgb(255, 255, 255); stroke: rgb(255, 255, 255);" d="M 75.215404 13.947445 C 75.240726 12.857414 75.747175 11.866477 76.63346 11.247141 C 77.494423 10.528711 78.7099 10.132336 80.026666 10.132336 C 81.368755 10.132336 82.584232 10.528711 83.419872 11.247141 C 84.306157 11.866477 84.812606 12.807867 84.837928 13.897898 L 84.837928 81.182555 C 84.812606 82.272586 84.306157 83.263523 83.419872 83.907633 C 82.558909 84.601289 81.343433 84.997664 80.026666 84.997664 C 78.7099 84.997664 77.494423 84.601289 76.63346 83.907633 C 75.747175 83.263523 75.240726 82.322133 75.215404 81.232102 L 75.215404 13.897898 " transform="matrix(0.15426,0,0,0.157679,0.0222379,0)"></path>
        <path style="fill-rule: nonzero; fill-opacity: 1; stroke-width: 1; stroke-linecap: butt; stroke-linejoin: miter; stroke-opacity: 1; stroke-miterlimit: 4; fill: rgb(255, 255, 255); stroke: rgb(255, 255, 255);" d="M 93.776747 23.361352 C 93.776747 22.27132 94.308518 21.280383 95.194804 20.636273 C 96.081089 19.942617 97.296566 19.546242 98.663977 19.546242 C 100.006066 19.546242 101.246865 19.942617 102.107828 20.636273 C 102.994113 21.280383 103.525884 22.221773 103.525884 23.311805 L 103.525884 71.768648 C 103.525884 72.85868 102.994113 73.849617 102.107828 74.493727 C 101.246865 75.187383 100.006066 75.608531 98.663977 75.608531 C 97.296566 75.608531 96.081089 75.187383 95.194804 74.493727 C 94.308518 73.849617 93.80207 72.908227 93.776747 71.818195 L 93.776747 23.311805 " transform="matrix(0.15426,0,0,0.157679,0.0222379,0)"></path>
        <path style="fill-rule: nonzero; fill-opacity: 1; stroke-width: 1; stroke-linecap: butt; stroke-linejoin: miter; stroke-opacity: 1; stroke-miterlimit: 4; fill: rgb(255, 255, 255); stroke: rgb(255, 255, 255);" d="M 112.388736 31.883414 C 112.388736 30.793383 112.920507 29.777672 113.832115 29.158336 C 114.693077 28.439906 115.908554 28.043531 117.275966 28.043531 C 118.618054 28.043531 119.858854 28.439906 120.719816 29.158336 C 121.606102 29.777672 122.137873 30.719063 122.163195 31.809094 L 122.163195 63.246586 C 122.137873 64.336617 121.606102 65.352328 120.719816 65.971664 C 119.858854 66.690094 118.618054 67.086469 117.275966 67.086469 C 115.908554 67.086469 114.693077 66.690094 113.832115 65.971664 C 112.920507 65.352328 112.414058 64.410938 112.388736 63.320906 L 112.388736 31.809094 " transform="matrix(0.15426,0,0,0.157679,0.0222379,0)"></path>
    </g>
    <path style="fill-rule: nonzero; fill-opacity: 1; stroke-width: 1; stroke-linecap: butt; stroke-linejoin: miter; stroke-opacity: 1; stroke-miterlimit: 4; fill: rgb(255, 255, 255); stroke: rgb(255, 255, 255);" d="M 9.181 -2.358 C 9.184 -2.597 9.236 -2.822 9.329 -2.957 C 9.417 -3.117 9.544 -3.204 9.681 -3.204 C 9.819 -3.204 9.945 -3.117 10.034 -2.957 C 10.127 -2.822 10.179 -2.608 10.181 -2.368 L 10.181 16.948 C 10.179 17.188 10.127 17.413 10.034 17.549 C 9.945 17.708 9.819 17.796 9.681 17.796 C 9.544 17.796 9.417 17.708 9.329 17.549 C 9.236 17.413 9.184 17.2 9.181 16.959 L 9.181 -2.368" transform="matrix(0.601815, 0.798636, -0.798636, 0.601815, 9.681675, -4.826433)"></path>
</svg>
